<svg width="369" height="66" viewBox="0 0 369 66" fill="none" xmlns="http://www.w3.org/2000/svg">
<path d="M11.32 52C10.9093 52 10.5733 51.8693 10.312 51.608C10.0507 51.3467 9.92 51.0107 9.92 50.6V14.2C9.92 13.7893 10.0507 13.4533 10.312 13.192C10.5733 12.9307 10.9093 12.8 11.32 12.8H18.376C18.7867 12.8 19.1227 12.9307 19.384 13.192C19.6453 13.4533 19.776 13.7893 19.776 14.2V26.632L30.136 13.864C30.2853 13.64 30.528 13.416 30.864 13.192C31.2373 12.9307 31.7227 12.8 32.32 12.8H40.384C40.72 12.8 41 12.9307 41.224 13.192C41.448 13.416 41.56 13.6773 41.56 13.976C41.56 14.2373 41.4853 14.4613 41.336 14.648L27.952 31.56L42.4 50.152C42.5493 50.3013 42.624 50.5253 42.624 50.824C42.624 51.1227 42.4933 51.4027 42.232 51.664C42.008 51.888 41.7467 52 41.448 52H33.104C32.432 52 31.9093 51.8507 31.536 51.552C31.2 51.2533 30.976 51.0293 30.864 50.88L19.776 37.048V50.6C19.776 51.0107 19.6453 51.3467 19.384 51.608C19.1227 51.8693 18.7867 52 18.376 52H11.32ZM49.0251 62.64C48.6891 62.64 48.4091 62.528 48.1851 62.304C47.9611 62.08 47.8491 61.8 47.8491 61.464C47.8491 61.3893 47.8491 61.2773 47.8491 61.128C47.8864 61.016 47.9424 60.8853 48.0171 60.736L52.3851 50.208L41.6331 24.784C41.5211 24.5227 41.4651 24.2987 41.4651 24.112C41.5397 23.776 41.6891 23.496 41.9131 23.272C42.1371 23.0107 42.4171 22.88 42.7531 22.88H49.1371C49.6224 22.88 49.9771 23.0107 50.2011 23.272C50.4624 23.496 50.6304 23.7573 50.7051 24.056L57.1451 40.352L63.6971 24.056C63.8464 23.7573 64.0331 23.496 64.2571 23.272C64.5184 23.0107 64.8917 22.88 65.3771 22.88H71.6491C71.9851 22.88 72.2651 23.0107 72.4891 23.272C72.7504 23.496 72.8811 23.7573 72.8811 24.056C72.8811 24.2427 72.8251 24.4853 72.7131 24.784L56.8651 61.464C56.7531 61.7627 56.5664 62.024 56.3051 62.248C56.0437 62.5093 55.6704 62.64 55.1851 62.64H49.0251ZM78.4071 52C77.9965 52 77.6605 51.8693 77.3991 51.608C77.1378 51.3467 77.0071 51.0107 77.0071 50.6V24.28C77.0071 23.9067 77.1378 23.5893 77.3991 23.328C77.6605 23.0293 77.9965 22.88 78.4071 22.88H84.8471C85.2578 22.88 85.5938 23.0293 85.8551 23.328C86.1165 23.5893 86.2471 23.9067 86.2471 24.28V26.52C87.2551 25.3627 88.4498 24.4667 89.8311 23.832C91.2498 23.1973 92.8365 22.88 94.5911 22.88H97.0551C97.4285 22.88 97.7458 23.0107 98.0071 23.272C98.3058 23.5333 98.4551 23.8693 98.4551 24.28V30.048C98.4551 30.4213 98.3058 30.7573 98.0071 31.056C97.7458 31.3173 97.4285 31.448 97.0551 31.448H91.6231C90.0925 31.448 88.8978 31.8773 88.0391 32.736C87.2178 33.5573 86.8071 34.7333 86.8071 36.264V50.6C86.8071 51.0107 86.6578 51.3467 86.3591 51.608C86.0978 51.8693 85.7618 52 85.3511 52H78.4071ZM116.443 64.32C113.569 64.32 111.179 63.9467 109.275 63.2C107.409 62.4533 105.915 61.5573 104.795 60.512C103.713 59.4667 102.929 58.4213 102.443 57.376C101.958 56.368 101.697 55.5653 101.659 54.968C101.622 54.5573 101.753 54.2213 102.051 53.96C102.35 53.6987 102.705 53.568 103.115 53.568H110.227C110.563 53.568 110.843 53.6427 111.067 53.792C111.329 53.9787 111.534 54.2773 111.683 54.688C111.87 55.0987 112.113 55.528 112.411 55.976C112.747 56.424 113.195 56.7787 113.755 57.04C114.353 57.3387 115.155 57.488 116.163 57.488C117.283 57.488 118.217 57.3013 118.963 56.928C119.71 56.592 120.27 56.0133 120.643 55.192C121.017 54.408 121.203 53.344 121.203 52V48.248C120.345 49.1813 119.243 49.9467 117.899 50.544C116.555 51.104 114.931 51.384 113.027 51.384C111.123 51.384 109.443 51.104 107.987 50.544C106.531 49.984 105.318 49.144 104.347 48.024C103.377 46.904 102.611 45.5413 102.051 43.936C101.529 42.3307 101.211 40.4827 101.099 38.392C101.062 37.4213 101.062 36.4507 101.099 35.48C101.211 33.464 101.529 31.6533 102.051 30.048C102.574 28.4427 103.321 27.0613 104.291 25.904C105.299 24.7467 106.531 23.8693 107.987 23.272C109.443 22.6373 111.123 22.32 113.027 22.32C115.043 22.32 116.761 22.712 118.179 23.496C119.635 24.2427 120.83 25.1947 121.763 26.352V24.28C121.763 23.9067 121.894 23.5893 122.155 23.328C122.417 23.0293 122.753 22.88 123.163 22.88H129.603C130.014 22.88 130.35 23.0293 130.611 23.328C130.91 23.5893 131.059 23.9067 131.059 24.28V51.216C131.059 54.0533 130.481 56.4427 129.323 58.384C128.166 60.3253 126.505 61.8 124.339 62.808C122.174 63.816 119.542 64.32 116.443 64.32ZM116.051 44.104C117.246 44.104 118.217 43.8427 118.963 43.32C119.71 42.7973 120.251 42.1253 120.587 41.304C120.961 40.4827 121.166 39.6053 121.203 38.672C121.241 38.2613 121.259 37.6827 121.259 36.936C121.259 36.1893 121.241 35.6293 121.203 35.256C121.166 34.2853 120.961 33.3893 120.587 32.568C120.251 31.7467 119.71 31.0933 118.963 30.608C118.217 30.0853 117.246 29.824 116.051 29.824C114.819 29.824 113.83 30.0853 113.083 30.608C112.374 31.1307 111.851 31.84 111.515 32.736C111.217 33.632 111.03 34.6213 110.955 35.704C110.918 36.5253 110.918 37.3653 110.955 38.224C111.03 39.3067 111.217 40.296 111.515 41.192C111.851 42.088 112.374 42.7973 113.083 43.32C113.83 43.8427 114.819 44.104 116.051 44.104ZM143.088 62.64C142.752 62.64 142.472 62.528 142.248 62.304C142.024 62.08 141.912 61.8 141.912 61.464C141.912 61.3893 141.912 61.2773 141.912 61.128C141.949 61.016 142.005 60.8853 142.08 60.736L146.448 50.208L135.696 24.784C135.584 24.5227 135.528 24.2987 135.528 24.112C135.602 23.776 135.752 23.496 135.976 23.272C136.2 23.0107 136.48 22.88 136.816 22.88H143.2C143.685 22.88 144.04 23.0107 144.264 23.272C144.525 23.496 144.693 23.7573 144.768 24.056L151.208 40.352L157.76 24.056C157.909 23.7573 158.096 23.496 158.32 23.272C158.581 23.0107 158.954 22.88 159.44 22.88H165.712C166.048 22.88 166.328 23.0107 166.552 23.272C166.813 23.496 166.944 23.7573 166.944 24.056C166.944 24.2427 166.888 24.4853 166.776 24.784L150.928 61.464C150.816 61.7627 150.629 62.024 150.368 62.248C150.106 62.5093 149.733 62.64 149.248 62.64H143.088ZM170.966 52C170.592 52 170.256 51.8693 169.958 51.608C169.696 51.3467 169.566 51.0107 169.566 50.6V46.232C169.566 45.8213 169.64 45.4667 169.79 45.168C169.976 44.8693 170.2 44.5893 170.462 44.328L183.566 30.104H171.47C171.059 30.104 170.704 29.9733 170.406 29.712C170.144 29.4507 170.014 29.1147 170.014 28.704V24.28C170.014 23.8693 170.144 23.5333 170.406 23.272C170.704 23.0107 171.059 22.88 171.47 22.88H193.982C194.355 22.88 194.672 23.0107 194.934 23.272C195.232 23.5333 195.382 23.8693 195.382 24.28V29.04C195.382 29.376 195.307 29.6747 195.158 29.936C195.008 30.1973 194.822 30.4587 194.598 30.72L181.829 44.776H195.102C195.512 44.776 195.848 44.9067 196.11 45.168C196.371 45.4293 196.502 45.7653 196.502 46.176V50.6C196.502 51.0107 196.371 51.3467 196.11 51.608C195.848 51.8693 195.512 52 195.102 52H170.966ZM203.656 52C203.245 52 202.909 51.8693 202.648 51.608C202.387 51.3467 202.256 51.0107 202.256 50.6V14.2C202.256 13.7893 202.387 13.4533 202.648 13.192C202.909 12.9307 203.245 12.8 203.656 12.8H220.736C223.947 12.8 226.579 13.248 228.632 14.144C230.685 15.04 232.197 16.328 233.168 18.008C234.176 19.6507 234.68 21.6107 234.68 23.888C234.68 25.232 234.419 26.4267 233.896 27.472C233.411 28.48 232.795 29.32 232.048 29.992C231.339 30.664 230.667 31.1493 230.032 31.448C231.451 32.12 232.701 33.2213 233.784 34.752C234.904 36.2827 235.464 38.0747 235.464 40.128C235.464 42.592 234.904 44.72 233.784 46.512C232.701 48.2667 231.096 49.6293 228.968 50.6C226.877 51.5333 224.301 52 221.24 52H203.656ZM212.28 44.72H220.12C221.725 44.72 222.939 44.2533 223.76 43.32C224.581 42.3867 224.992 41.3227 224.992 40.128C224.992 38.8213 224.563 37.72 223.704 36.824C222.883 35.928 221.688 35.48 220.12 35.48H212.28V44.72ZM212.28 28.368H219.616C221.147 28.368 222.285 27.976 223.032 27.192C223.816 26.408 224.208 25.4 224.208 24.168C224.208 22.9733 223.816 22.0027 223.032 21.256C222.285 20.472 221.147 20.08 219.616 20.08H212.28V28.368ZM249.806 52.56C247.79 52.56 245.979 52.1867 244.374 51.44C242.806 50.656 241.555 49.6107 240.622 48.304C239.688 46.9973 239.222 45.5227 239.222 43.88C239.222 41.2293 240.304 39.1387 242.47 37.608C244.635 36.04 247.51 34.976 251.094 34.416L258.094 33.352V32.568C258.094 31.224 257.814 30.1973 257.254 29.488C256.694 28.7787 255.667 28.424 254.174 28.424C253.128 28.424 252.27 28.6293 251.598 29.04C250.963 29.4507 250.459 30.0107 250.086 30.72C249.75 31.2053 249.283 31.448 248.686 31.448H242.414C242.003 31.448 241.686 31.336 241.462 31.112C241.238 30.8507 241.144 30.552 241.182 30.216C241.182 29.544 241.424 28.7787 241.91 27.92C242.432 27.024 243.216 26.1467 244.262 25.288C245.307 24.4293 246.651 23.72 248.294 23.16C249.936 22.6 251.915 22.32 254.23 22.32C256.656 22.32 258.728 22.6 260.446 23.16C262.163 23.72 263.544 24.504 264.59 25.512C265.672 26.52 266.475 27.7147 266.998 29.096C267.52 30.44 267.782 31.9333 267.782 33.576V50.6C267.782 51.0107 267.632 51.3467 267.334 51.608C267.072 51.8693 266.755 52 266.382 52H259.886C259.475 52 259.139 51.8693 258.878 51.608C258.616 51.3467 258.486 51.0107 258.486 50.6V48.64C258 49.3493 257.347 50.0027 256.526 50.6C255.704 51.1973 254.734 51.664 253.614 52C252.531 52.3733 251.262 52.56 249.806 52.56ZM252.438 46.176C253.52 46.176 254.491 45.952 255.35 45.504C256.246 45.0187 256.936 44.2907 257.422 43.32C257.944 42.312 258.206 41.0613 258.206 39.568V38.784L253.446 39.624C251.691 39.9227 250.403 40.3893 249.582 41.024C248.798 41.6213 248.406 42.3307 248.406 43.152C248.406 43.7867 248.592 44.328 248.966 44.776C249.339 45.224 249.824 45.5787 250.422 45.84C251.019 46.064 251.691 46.176 252.438 46.176ZM274.325 52C273.952 52 273.616 51.8693 273.317 51.608C273.056 51.3467 272.925 51.0107 272.925 50.6V46.232C272.925 45.8213 273 45.4667 273.149 45.168C273.336 44.8693 273.56 44.5893 273.821 44.328L286.925 30.104H274.829C274.418 30.104 274.064 29.9733 273.765 29.712C273.504 29.4507 273.373 29.1147 273.373 28.704V24.28C273.373 23.8693 273.504 23.5333 273.765 23.272C274.064 23.0107 274.418 22.88 274.829 22.88H297.341C297.714 22.88 298.032 23.0107 298.293 23.272C298.592 23.5333 298.741 23.8693 298.741 24.28V29.04C298.741 29.376 298.666 29.6747 298.517 29.936C298.368 30.1973 298.181 30.4587 297.957 30.72L285.189 44.776H298.461C298.872 44.776 299.208 44.9067 299.469 45.168C299.73 45.4293 299.861 45.7653 299.861 46.176V50.6C299.861 51.0107 299.73 51.3467 299.469 51.608C299.208 51.8693 298.872 52 298.461 52H274.325ZM313.735 52.56C311.719 52.56 309.909 52.1867 308.303 51.44C306.735 50.656 305.485 49.6107 304.551 48.304C303.618 46.9973 303.151 45.5227 303.151 43.88C303.151 41.2293 304.234 39.1387 306.399 37.608C308.565 36.04 311.439 34.976 315.023 34.416L322.023 33.352V32.568C322.023 31.224 321.743 30.1973 321.183 29.488C320.623 28.7787 319.597 28.424 318.103 28.424C317.058 28.424 316.199 28.6293 315.527 29.04C314.893 29.4507 314.389 30.0107 314.015 30.72C313.679 31.2053 313.213 31.448 312.615 31.448H306.343C305.933 31.448 305.615 31.336 305.391 31.112C305.167 30.8507 305.074 30.552 305.111 30.216C305.111 29.544 305.354 28.7787 305.839 27.92C306.362 27.024 307.146 26.1467 308.191 25.288C309.237 24.4293 310.581 23.72 312.223 23.16C313.866 22.6 315.845 22.32 318.159 22.32C320.586 22.32 322.658 22.6 324.375 23.16C326.093 23.72 327.474 24.504 328.519 25.512C329.602 26.52 330.405 27.7147 330.927 29.096C331.45 30.44 331.711 31.9333 331.711 33.576V50.6C331.711 51.0107 331.562 51.3467 331.263 51.608C331.002 51.8693 330.685 52 330.311 52H323.815C323.405 52 323.069 51.8693 322.807 51.608C322.546 51.3467 322.415 51.0107 322.415 50.6V48.64C321.93 49.3493 321.277 50.0027 320.455 50.6C319.634 51.1973 318.663 51.664 317.543 52C316.461 52.3733 315.191 52.56 313.735 52.56ZM316.367 46.176C317.45 46.176 318.421 45.952 319.279 45.504C320.175 45.0187 320.866 44.2907 321.351 43.32C321.874 42.312 322.135 41.0613 322.135 39.568V38.784L317.375 39.624C315.621 39.9227 314.333 40.3893 313.511 41.024C312.727 41.6213 312.335 42.3307 312.335 43.152C312.335 43.7867 312.522 44.328 312.895 44.776C313.269 45.224 313.754 45.5787 314.351 45.84C314.949 46.064 315.621 46.176 316.367 46.176ZM339.431 52C339.02 52 338.684 51.8693 338.423 51.608C338.161 51.3467 338.031 51.0107 338.031 50.6V24.28C338.031 23.9067 338.161 23.5893 338.423 23.328C338.684 23.0293 339.02 22.88 339.431 22.88H345.871C346.281 22.88 346.617 23.0293 346.879 23.328C347.14 23.5893 347.271 23.9067 347.271 24.28V26.52C348.279 25.3627 349.473 24.4667 350.855 23.832C352.273 23.1973 353.86 22.88 355.615 22.88H358.079C358.452 22.88 358.769 23.0107 359.031 23.272C359.329 23.5333 359.479 23.8693 359.479 24.28V30.048C359.479 30.4213 359.329 30.7573 359.031 31.056C358.769 31.3173 358.452 31.448 358.079 31.448H352.647C351.116 31.448 349.921 31.8773 349.063 32.736C348.241 33.5573 347.831 34.7333 347.831 36.264V50.6C347.831 51.0107 347.681 51.3467 347.383 51.608C347.121 51.8693 346.785 52 346.375 52H339.431Z" fill="white"/>
</svg>
