<svg width="50" height="66" viewBox="0 0 50 66" fill="none" xmlns="http://www.w3.org/2000/svg">
<path d="M11.32 52C10.9093 52 10.5733 51.8693 10.312 51.608C10.0507 51.3467 9.92 51.0107 9.92 50.6V14.2C9.92 13.7893 10.0507 13.4533 10.312 13.192C10.5733 12.9307 10.9093 12.8 11.32 12.8H18.376C18.7867 12.8 19.1227 12.9307 19.384 13.192C19.6453 13.4533 19.776 13.7893 19.776 14.2V26.632L30.136 13.864C30.2853 13.64 30.528 13.416 30.864 13.192C31.2373 12.9307 31.7227 12.8 32.32 12.8H40.384C40.72 12.8 41 12.9307 41.224 13.192C41.448 13.416 41.56 13.6773 41.56 13.976C41.56 14.2373 41.4853 14.4613 41.336 14.648L27.952 31.56L42.4 50.152C42.5493 50.3013 42.624 50.5253 42.624 50.824C42.624 51.1227 42.4933 51.4027 42.232 51.664C42.008 51.888 41.7467 52 41.448 52H33.104C32.432 52 31.9093 51.8507 31.536 51.552C31.2 51.2533 30.976 51.0293 30.864 50.88L19.776 37.048V50.6C19.776 51.0107 19.6453 51.3467 19.384 51.608C19.1227 51.8693 18.7867 52 18.376 52H11.32Z" fill="white"/>
</svg>
